<mxfile host="app.diagrams.net" agent="Mozilla/5.0 (Windows NT 10.0; Win64; x64) AppleWebKit/537.36 (KHTML, like Gecko) Chrome/140.0.0.0 Safari/537.36" version="27.0.9">
  <diagram name="Page-1" id="o3EKDyPvtcX2gzrnvQS9">
    <mxGraphModel dx="721" dy="421" grid="1" gridSize="10" guides="1" tooltips="1" connect="1" arrows="1" fold="1" page="1" pageScale="1" pageWidth="850" pageHeight="1100" math="0" shadow="0">
      <root>
        <mxCell id="0" />
        <mxCell id="1" parent="0" />
        <mxCell id="Yz_qzDubZsvZcdyezcY0-10" value="POST Delta" style="rounded=0;orthogonalLoop=1;jettySize=auto;html=1;exitX=0.92;exitY=0.14;exitDx=0;exitDy=0;exitPerimeter=0;entryX=0.25;entryY=0;entryDx=0;entryDy=0;edgeStyle=orthogonalEdgeStyle;fillColor=#f0a30a;strokeColor=#BD7000;" edge="1" parent="1" source="Yz_qzDubZsvZcdyezcY0-1" target="Yz_qzDubZsvZcdyezcY0-5">
          <mxGeometry x="0.4096" y="-1" relative="1" as="geometry">
            <mxPoint x="200" y="100" as="targetPoint" />
            <mxPoint x="1" y="-1" as="offset" />
          </mxGeometry>
        </mxCell>
        <mxCell id="Yz_qzDubZsvZcdyezcY0-23" value="GET Schedule" style="edgeStyle=entityRelationEdgeStyle;rounded=0;orthogonalLoop=1;jettySize=auto;html=1;exitX=0.92;exitY=0.86;exitDx=0;exitDy=0;exitPerimeter=0;entryX=0;entryY=0.25;entryDx=0;entryDy=0;fillColor=#f0a30a;strokeColor=#BD7000;" edge="1" parent="1" source="Yz_qzDubZsvZcdyezcY0-1" target="Yz_qzDubZsvZcdyezcY0-5">
          <mxGeometry relative="1" as="geometry" />
        </mxCell>
        <mxCell id="Yz_qzDubZsvZcdyezcY0-1" value="&lt;div&gt;&lt;span style=&quot;background-color: transparent; color: light-dark(rgb(0, 0, 0), rgb(255, 255, 255));&quot;&gt;Admission Booth&lt;/span&gt;&lt;/div&gt;&lt;div&gt;User Interface&lt;span style=&quot;background-color: transparent; color: light-dark(rgb(0, 0, 0), rgb(255, 255, 255));&quot;&gt;&lt;/span&gt;&lt;/div&gt;&lt;div&gt;(&quot;Edit&quot;)&lt;/div&gt;" style="strokeWidth=2;html=1;shape=mxgraph.flowchart.display;whiteSpace=wrap;fillColor=#ffe6cc;strokeColor=#d79b00;" vertex="1" parent="1">
          <mxGeometry x="40" y="200" width="130" height="80" as="geometry" />
        </mxCell>
        <mxCell id="Yz_qzDubZsvZcdyezcY0-24" value="GET Schedule" style="edgeStyle=entityRelationEdgeStyle;rounded=0;orthogonalLoop=1;jettySize=auto;html=1;exitX=0.92;exitY=0.14;exitDx=0;exitDy=0;exitPerimeter=0;entryX=0;entryY=0.75;entryDx=0;entryDy=0;fillColor=#f0a30a;strokeColor=#BD7000;" edge="1" parent="1" source="Yz_qzDubZsvZcdyezcY0-2" target="Yz_qzDubZsvZcdyezcY0-5">
          <mxGeometry relative="1" as="geometry" />
        </mxCell>
        <mxCell id="Yz_qzDubZsvZcdyezcY0-2" value="&lt;div&gt;&lt;span style=&quot;background-color: transparent; color: light-dark(rgb(0, 0, 0), rgb(255, 255, 255));&quot;&gt;Drivers&lt;/span&gt;&lt;/div&gt;&lt;div&gt;&lt;span style=&quot;background-color: transparent; color: light-dark(rgb(0, 0, 0), rgb(255, 255, 255));&quot;&gt;User Interface&lt;/span&gt;&lt;/div&gt;&lt;div&gt;(&quot;View&quot;)&lt;/div&gt;" style="strokeWidth=2;html=1;shape=mxgraph.flowchart.display;whiteSpace=wrap;fillColor=#ffe6cc;strokeColor=#d79b00;" vertex="1" parent="1">
          <mxGeometry x="40" y="320" width="130" height="80" as="geometry" />
        </mxCell>
        <mxCell id="Yz_qzDubZsvZcdyezcY0-27" value="DB&lt;br&gt;&lt;div&gt;Slots&lt;/div&gt;" style="edgeStyle=orthogonalEdgeStyle;rounded=0;orthogonalLoop=1;jettySize=auto;html=1;exitX=0.25;exitY=1;exitDx=0;exitDy=0;entryX=0.25;entryY=0;entryDx=0;entryDy=0;fillColor=#60a917;strokeColor=#2D7600;" edge="1" parent="1" source="Yz_qzDubZsvZcdyezcY0-5" target="Yz_qzDubZsvZcdyezcY0-25">
          <mxGeometry x="0.1429" relative="1" as="geometry">
            <mxPoint as="offset" />
          </mxGeometry>
        </mxCell>
        <mxCell id="Yz_qzDubZsvZcdyezcY0-5" value="API&lt;div&gt;(/api/hayrides)&lt;/div&gt;" style="shape=process;whiteSpace=wrap;html=1;backgroundOutline=1;fillColor=#d5e8d4;strokeColor=#82b366;" vertex="1" parent="1">
          <mxGeometry x="270" y="270" width="120" height="60" as="geometry" />
        </mxCell>
        <mxCell id="Yz_qzDubZsvZcdyezcY0-14" style="edgeStyle=orthogonalEdgeStyle;rounded=0;orthogonalLoop=1;jettySize=auto;html=1;entryX=0.5;entryY=1;entryDx=0;entryDy=0;entryPerimeter=0;fillColor=#60a917;strokeColor=#2D7600;" edge="1" parent="1" source="Yz_qzDubZsvZcdyezcY0-5" target="Yz_qzDubZsvZcdyezcY0-1">
          <mxGeometry relative="1" as="geometry" />
        </mxCell>
        <mxCell id="Yz_qzDubZsvZcdyezcY0-15" value="Response: JSON Schedule" style="edgeStyle=orthogonalEdgeStyle;rounded=0;orthogonalLoop=1;jettySize=auto;html=1;entryX=0.5;entryY=0;entryDx=0;entryDy=0;entryPerimeter=0;fillColor=#60a917;strokeColor=#2D7600;" edge="1" parent="1" source="Yz_qzDubZsvZcdyezcY0-5" target="Yz_qzDubZsvZcdyezcY0-2">
          <mxGeometry x="-0.027" relative="1" as="geometry">
            <Array as="points">
              <mxPoint x="105" y="300" />
            </Array>
            <mxPoint as="offset" />
          </mxGeometry>
        </mxCell>
        <mxCell id="Yz_qzDubZsvZcdyezcY0-20" value="Mutation Results" style="edgeStyle=orthogonalEdgeStyle;rounded=0;orthogonalLoop=1;jettySize=auto;html=1;exitX=0;exitY=0;exitDx=0;exitDy=0;entryX=1;entryY=0.5;entryDx=0;entryDy=0;entryPerimeter=0;fillColor=#60a917;strokeColor=#2D7600;" edge="1" parent="1" source="Yz_qzDubZsvZcdyezcY0-5" target="Yz_qzDubZsvZcdyezcY0-1">
          <mxGeometry relative="1" as="geometry" />
        </mxCell>
        <mxCell id="Yz_qzDubZsvZcdyezcY0-26" value="Merged Slots&lt;div&gt;&amp;amp; Defaults&lt;/div&gt;" style="edgeStyle=orthogonalEdgeStyle;rounded=0;orthogonalLoop=1;jettySize=auto;html=1;exitX=0.75;exitY=0;exitDx=0;exitDy=0;entryX=0.75;entryY=1;entryDx=0;entryDy=0;fillColor=#60a917;strokeColor=#2D7600;" edge="1" parent="1" source="Yz_qzDubZsvZcdyezcY0-25" target="Yz_qzDubZsvZcdyezcY0-5">
          <mxGeometry x="0.1429" relative="1" as="geometry">
            <mxPoint as="offset" />
          </mxGeometry>
        </mxCell>
        <mxCell id="Yz_qzDubZsvZcdyezcY0-25" value="Slots &amp;amp; Wagons Helpers" style="shape=process;whiteSpace=wrap;html=1;backgroundOutline=1;fillColor=#d5e8d4;strokeColor=#82b366;" vertex="1" parent="1">
          <mxGeometry x="270" y="400" width="120" height="60" as="geometry" />
        </mxCell>
        <mxCell id="Yz_qzDubZsvZcdyezcY0-30" value="Slots/Wagons" style="edgeStyle=entityRelationEdgeStyle;rounded=0;orthogonalLoop=1;jettySize=auto;html=1;exitX=0;exitY=0.85;exitDx=0;exitDy=0;exitPerimeter=0;entryX=1;entryY=0.75;entryDx=0;entryDy=0;fillColor=#1ba1e2;strokeColor=#006EAF;" edge="1" parent="1" source="Yz_qzDubZsvZcdyezcY0-28" target="Yz_qzDubZsvZcdyezcY0-5">
          <mxGeometry relative="1" as="geometry" />
        </mxCell>
        <mxCell id="Yz_qzDubZsvZcdyezcY0-28" value="&lt;div&gt;&lt;br&gt;&lt;/div&gt;&lt;div&gt;&lt;br&gt;&lt;/div&gt;Neon&lt;div&gt;Database&lt;/div&gt;" style="strokeWidth=2;html=1;shape=mxgraph.flowchart.database;whiteSpace=wrap;fillColor=#dae8fc;strokeColor=#6c8ebf;" vertex="1" parent="1">
          <mxGeometry x="490" y="250" width="100" height="100" as="geometry" />
        </mxCell>
        <mxCell id="Yz_qzDubZsvZcdyezcY0-29" value="Read/Write" style="edgeStyle=entityRelationEdgeStyle;rounded=0;orthogonalLoop=1;jettySize=auto;html=1;exitX=1;exitY=0.25;exitDx=0;exitDy=0;entryX=0;entryY=0.15;entryDx=0;entryDy=0;entryPerimeter=0;fillColor=#60a917;strokeColor=#2D7600;" edge="1" parent="1" source="Yz_qzDubZsvZcdyezcY0-5" target="Yz_qzDubZsvZcdyezcY0-28">
          <mxGeometry relative="1" as="geometry" />
        </mxCell>
        <mxCell id="Yz_qzDubZsvZcdyezcY0-31" value="Legend" style="swimlane;fontStyle=0;childLayout=stackLayout;horizontal=1;startSize=26;fillColor=none;horizontalStack=0;resizeParent=1;resizeParentMax=0;resizeLast=0;collapsible=1;marginBottom=0;whiteSpace=wrap;html=1;" vertex="1" parent="1">
          <mxGeometry x="450" y="356" width="140" height="104" as="geometry" />
        </mxCell>
        <mxCell id="Yz_qzDubZsvZcdyezcY0-32" value="Client" style="text;strokeColor=#d79b00;fillColor=#ffe6cc;align=left;verticalAlign=top;spacingLeft=4;spacingRight=4;overflow=hidden;rotatable=0;points=[[0,0.5],[1,0.5]];portConstraint=eastwest;whiteSpace=wrap;html=1;" vertex="1" parent="Yz_qzDubZsvZcdyezcY0-31">
          <mxGeometry y="26" width="140" height="26" as="geometry" />
        </mxCell>
        <mxCell id="Yz_qzDubZsvZcdyezcY0-33" value="Server" style="text;strokeColor=#82b366;fillColor=#d5e8d4;align=left;verticalAlign=top;spacingLeft=4;spacingRight=4;overflow=hidden;rotatable=0;points=[[0,0.5],[1,0.5]];portConstraint=eastwest;whiteSpace=wrap;html=1;" vertex="1" parent="Yz_qzDubZsvZcdyezcY0-31">
          <mxGeometry y="52" width="140" height="26" as="geometry" />
        </mxCell>
        <mxCell id="Yz_qzDubZsvZcdyezcY0-34" value="Postgres" style="text;strokeColor=#6c8ebf;fillColor=#dae8fc;align=left;verticalAlign=top;spacingLeft=4;spacingRight=4;overflow=hidden;rotatable=0;points=[[0,0.5],[1,0.5]];portConstraint=eastwest;whiteSpace=wrap;html=1;" vertex="1" parent="Yz_qzDubZsvZcdyezcY0-31">
          <mxGeometry y="78" width="140" height="26" as="geometry" />
        </mxCell>
        <mxCell id="Yz_qzDubZsvZcdyezcY0-35" value="Hayride Scheduling System Overview" style="text;html=1;align=center;verticalAlign=middle;whiteSpace=wrap;rounded=0;fontSize=13;fontStyle=1" vertex="1" parent="1">
          <mxGeometry x="350" y="200" width="240" height="20" as="geometry" />
        </mxCell>
        <mxCell id="Yz_qzDubZsvZcdyezcY0-37" value="&lt;span style=&quot;font-family: &amp;quot;Segoe WPC&amp;quot;, &amp;quot;Segoe UI&amp;quot;, sans-serif;&quot;&gt;Admissions and driver clients hits API which orchestrates helpers and database schedule storage pipeline.&lt;/span&gt;" style="text;html=1;align=left;verticalAlign=middle;whiteSpace=wrap;rounded=0;fontSize=11;labelBackgroundColor=none;fontColor=default;" vertex="1" parent="1">
          <mxGeometry x="40" y="410" width="220" height="50" as="geometry" />
        </mxCell>
      </root>
    </mxGraphModel>
  </diagram>
</mxfile>
